<svg viewBox="0 0 48 48" xmlns="http://www.w3.org/2000/svg"><path d="M14.101 42.314a6.955 6.955 0 0 1-4.95-2.051L7.736 38.85c-2.729-2.729-2.729-7.171 0-9.899l9.192-9.192c1.322-1.322 3.08-2.051 4.95-2.051s3.628.729 4.949 2.051l1.414 1.414a.999.999 0 1 1-1.414 1.414l-1.414-1.414a4.968 4.968 0 0 0-3.535-1.465 4.969 4.969 0 0 0-3.536 1.465L9.15 30.364a5.006 5.006 0 0 0 0 7.071l1.414 1.414a4.969 4.969 0 0 0 3.536 1.465 4.968 4.968 0 0 0 3.535-1.465L24 32.485a.999.999 0 1 1 1.414 1.414l-6.364 6.364a6.947 6.947 0 0 1-4.949 2.051z"/><path d="M26.121 30.293a6.953 6.953 0 0 1-4.949-2.051.999.999 0 1 1 1.414-1.414 4.968 4.968 0 0 0 3.535 1.465 4.969 4.969 0 0 0 3.536-1.465l9.192-9.192a5.005 5.005 0 0 0 0-7.07L37.436 9.15a5.006 5.006 0 0 0-7.071 0L24 15.515a.999.999 0 1 1-1.414-1.414l6.364-6.364a7.008 7.008 0 0 1 9.899 0l1.414 1.415c2.729 2.729 2.729 7.17 0 9.898l-9.192 9.192a6.954 6.954 0 0 1-4.95 2.051z"/></svg>
